<?xml version="1.0" encoding="UTF-8" standalone="no"?>
<svg
   width="67.741707"
   height="67.741707"
   fill="currentColor"
   class="bi bi-cash-stack"
   viewBox="0 0 67.741707 67.741707"
   version="1.1"
   id="svg6"
   sodipodi:docname="goingDutchCirc.svg"
   inkscape:version="1.1.2 (b8e25be833, 2022-02-05)"
   xmlns:inkscape="http://www.inkscape.org/namespaces/inkscape"
   xmlns:sodipodi="http://sodipodi.sourceforge.net/DTD/sodipodi-0.dtd"
   xmlns="http://www.w3.org/2000/svg"
   xmlns:svg="http://www.w3.org/2000/svg">
  <defs
     id="defs10" />
  <sodipodi:namedview
     id="namedview8"
     pagecolor="#505050"
     bordercolor="#eeeeee"
     borderopacity="1"
     inkscape:pageshadow="0"
     inkscape:pageopacity="0"
     inkscape:pagecheckerboard="0"
     showgrid="false"
     inkscape:zoom="7.115262"
     inkscape:cx="61.768632"
     inkscape:cy="36.681713"
     inkscape:window-width="2400"
     inkscape:window-height="1271"
     inkscape:window-x="2391"
     inkscape:window-y="-9"
     inkscape:window-maximized="1"
     inkscape:current-layer="svg6" />
  <rect
     style="fill:#007f5f;fill-opacity:1;stroke-width:37.7953;stroke-linejoin:round;stroke-miterlimit:5"
     id="rect2088"
     width="67.741707"
     height="67.741707"
     x="0"
     y="0"
     ry="5.9028044"
     rx="5.9028044" />
  <g
     id="g2196"
     style="fill:#dddf00;fill-opacity:1"
     transform="translate(-5.9280492,-2.349678)">
    <path
       d="m 51.586721,16.661773 a 4.1906781,4.1906781 0 1 0 0,8.381356 4.1906781,4.1906781 0 0 0 0,-8.381356 z m -6.984462,4.190678 a 6.9844634,6.9844634 0 1 1 1.684653,4.548282 l -18.76865,8.716611 a 6.9816696,6.9816696 0 0 1 0,4.201853 l 18.76865,8.71661 a 6.9844634,6.9844634 0 1 1 -1.363367,2.447355 L 26.154894,40.76655 a 6.9844634,6.9844634 0 1 1 0,-9.096563 l 18.768651,-8.716609 a 6.9844634,6.9844634 0 0 1 -0.321286,-2.100927 z m -23.747176,11.17514 a 4.1906781,4.1906781 0 1 0 0,8.381355 4.1906781,4.1906781 0 0 0 0,-8.381355 z m 30.731638,15.36582 a 4.1906783,4.1906783 0 1 0 0,8.381356 4.1906783,4.1906783 0 0 0 0,-8.381356 z"
       id="path2188"
       style="fill:#dddf00;fill-opacity:1;stroke-width:2.79379" />
    <path
       d="m 18.573705,37.626418 c 0.07071,0.887635 0.772261,1.578948 2.030209,1.660826 v 0.655026 h 0.558261 v -0.659678 c 1.302608,-0.09118 2.063704,-0.787148 2.063704,-1.7976 0,-0.918339 -0.582452,-1.39193 -1.623609,-1.637565 l -0.440095,-0.104209 v -1.783643 c 0.55826,0.06327 0.913687,0.368452 0.999287,0.790869 h 0.978817 c -0.07071,-0.855069 -0.803896,-1.524052 -1.978104,-1.596626 v -0.655026 h -0.558261 v 0.668983 c -1.11187,0.10886 -1.870174,0.777843 -1.870174,1.724095 0,0.837392 0.563843,1.3696 1.500791,1.588252 l 0.369383,0.09118 v 1.892504 c -0.572218,-0.08653 -0.950905,-0.400087 -1.036505,-0.837391 z m 2.025557,-2.015322 c -0.548957,-0.127469 -0.846696,-0.387061 -0.846696,-0.777843 0,-0.437304 0.321,-0.764818 0.851348,-0.860652 v 1.637565 h -0.0047 z m 0.64386,1.110009 c 0.667122,0.154452 0.975096,0.404739 0.975096,0.846696 0,0.504295 -0.383339,0.850417 -1.056043,0.913687 v -1.778992 z"
       id="path2190"
       style="fill:#dddf00;fill-opacity:1;stroke-width:0.930435" />
    <path
       d="m 49.221853,22.236604 c 0.07071,0.887635 0.772261,1.578948 2.030209,1.660826 v 0.655026 h 0.558261 v -0.659678 c 1.302608,-0.09118 2.063704,-0.787148 2.063704,-1.7976 0,-0.918339 -0.582452,-1.39193 -1.623609,-1.637565 l -0.440095,-0.104209 v -1.783643 c 0.55826,0.06327 0.913687,0.368452 0.999287,0.790869 h 0.978817 c -0.07071,-0.855069 -0.803896,-1.524052 -1.978104,-1.596626 v -0.655026 h -0.558261 v 0.668983 c -1.11187,0.10886 -1.870174,0.777843 -1.870174,1.724095 0,0.837392 0.563843,1.3696 1.500791,1.588252 l 0.369383,0.09118 v 1.892504 c -0.572218,-0.08653 -0.950905,-0.400087 -1.036505,-0.837391 z m 2.025557,-2.015322 c -0.548957,-0.127469 -0.846696,-0.387061 -0.846696,-0.777843 0,-0.437304 0.321,-0.764818 0.851348,-0.860652 v 1.637565 h -0.0047 z m 0.64386,1.110009 c 0.667122,0.154452 0.975096,0.404739 0.975096,0.846696 0,0.504295 -0.383339,0.850417 -1.056043,0.913687 v -1.778992 z"
       id="path2192"
       style="fill:#dddf00;fill-opacity:1;stroke-width:0.930435" />
    <path
       d="m 49.221853,52.995369 c 0.07071,0.887635 0.772261,1.578948 2.030209,1.660826 v 0.655026 h 0.558261 v -0.659678 c 1.302608,-0.09118 2.063704,-0.787148 2.063704,-1.7976 0,-0.918339 -0.582452,-1.39193 -1.623609,-1.637565 l -0.440095,-0.104209 v -1.783643 c 0.55826,0.06327 0.913687,0.368452 0.999287,0.790869 h 0.978817 c -0.07071,-0.855069 -0.803896,-1.524052 -1.978104,-1.596626 v -0.655026 h -0.558261 v 0.668983 c -1.11187,0.10886 -1.870174,0.777843 -1.870174,1.724095 0,0.837392 0.563843,1.3696 1.500791,1.588252 l 0.369383,0.09118 v 1.892504 c -0.572218,-0.08653 -0.950905,-0.400087 -1.036505,-0.837391 z m 2.025557,-2.015322 c -0.548957,-0.127469 -0.846696,-0.387061 -0.846696,-0.777843 0,-0.437304 0.321,-0.764818 0.851348,-0.860652 v 1.637565 h -0.0047 z m 0.64386,1.110009 c 0.667122,0.154452 0.975096,0.404739 0.975096,0.846696 0,0.504295 -0.383339,0.850417 -1.056043,0.913687 v -1.778992 z"
       id="path2194"
       style="fill:#dddf00;fill-opacity:1;stroke-width:0.930435" />
  </g>
</svg>
